<svg viewBox="0 0 512 512" xmlns="http://www.w3.org/2000/svg"><circle cx="257.3" cy="256.8" r="241.1" fill="#574b90" paint-order="stroke fill markers"/><path d="M320.46 309.19c-10.64.045-19.854 2.549-27.547 6.257-2.802-5.517-5.7-10.334-6.174-13.953-.569-4.22-1.187-6.722-.522-11.728.666-5.007 3.656-12.102 3.61-12.605-.047-.51-.665-3.06-6.795-3.107-6.126-.045-11.394 1.16-12.015 2.735-.618 1.576-1.804 5.146-2.516 8.85-1.093 5.424-12.254 24.798-18.572 34.907-2.089-3.939-3.846-7.418-4.226-10.199-.57-4.219-1.187-6.722-.522-11.728.665-5.007 3.656-12.102 3.608-12.605-.047-.51-.665-3.06-6.787-3.106-6.127-.046-11.394 1.158-12.015 2.735-.618 1.575-1.283 5.284-2.517 8.857-1.234 3.568-16.1 35.83-19.992 44.222-1.996 4.263-3.704 7.696-4.94 10.012-.188.37-.331.602-.426.788.142-.231.238-.464.238-.37a164.467 164.467 0 01-1.663 3.105v.046c-.808 1.483-1.71 2.826-2.137 2.826-.285 0-.902-3.892.143-9.225 2.231-11.218 7.501-28.642 7.455-29.248-.048-.325.997-3.338-3.467-4.96-4.321-1.53-5.889 1.02-6.268 1.02s-.665.928-.665.928 4.797-19.657-9.213-19.657c-8.737 0-20.898 9.367-26.879 17.844-3.752 1.993-11.87 6.304-20.422 10.89-3.276 1.76-6.648 3.568-9.827 5.284-.237-.233-.428-.465-.665-.696-16.998-17.708-48.391-30.223-47.063-54.002.475-8.67 3.562-31.429 60.36-59.052 46.54-22.617 83.802-16.411 90.213-2.596 9.213 19.701-19.9 56.369-68.27 61.652-18.427 1.994-28.116-4.96-30.534-7.554-2.518-2.734-2.898-2.874-3.848-2.364-1.567.834-.57 3.245 0 4.681 1.425 3.662 7.363 10.154 17.475 13.4 8.882 2.827 30.487 4.403 56.606-5.47 29.35-11.032 52.191-41.764 45.496-67.478-6.84-26.14-51.24-34.72-93.253-20.166-25.028 8.67-52.092 22.295-71.575 40.048-23.125 21.14-26.833 39.538-25.313 47.234 5.414 27.3 43.976 45.099 59.408 58.265-.76.418-1.472.789-2.136 1.16-7.74 3.754-37.136 18.772-44.499 34.629-8.307 17.985 1.377 30.868 7.74 32.629 19.853 5.376 40.176-4.311 51.1-20.211 10.918-15.895 9.59-36.668 4.56-46.125-.049-.138-.144-.23-.19-.37a689.028 689.028 0 016.078-3.477c3.94-2.27 7.785-4.358 11.156-6.164-1.9 5.007-3.277 11.031-3.99 19.746-.854 10.2 3.468 23.411 9.068 28.598 2.469 2.271 5.46 2.318 7.31 2.318 6.553 0 9.497-5.285 12.775-11.586 4.037-7.696 7.6-16.643 7.6-16.643s-4.463 24.197 7.74 24.197c4.463 0 8.928-5.609 10.924-8.483v.046s.096-.184.333-.555c.475-.696.712-1.113.712-1.113v-.14c1.804-3.013 5.747-9.922 11.685-21.32 7.693-14.741 15.055-33.146 15.055-33.146s.665 4.498 2.946 11.96c1.329 4.404 4.13 9.225 6.362 13.909-1.803 2.41-2.897 3.8-2.897 3.8s0 .046.047.093a145.996 145.996 0 01-4.7 5.795c-6.08 7.045-13.298 15.109-14.25 17.43-1.14 2.736-.855 4.774 1.33 6.351 1.614 1.206 4.464 1.39 7.455 1.16 5.462-.373 9.305-1.67 11.163-2.505a39.443 39.443 0 009.596-4.913c5.936-4.263 9.543-10.38 9.213-18.45-.19-4.45-1.663-8.902-3.467-13.07.523-.742 1.093-1.53 1.615-2.317 9.405-13.399 16.668-28.088 16.668-28.088s.665 4.495 2.944 11.96c1.14 3.755 3.371 7.883 5.413 11.915-8.83 7-14.295 15.115-16.192 20.443-3.515 9.877-.76 14.322 4.416 15.347 2.327.464 5.651-.603 8.122-1.623 3.087-1.02 6.795-2.643 10.258-5.146 5.936-4.263 11.684-10.244 11.301-18.353-.143-3.662-1.188-7.322-2.565-10.844 7.455-3.058 17.144-4.728 29.49-3.337 26.449 3.013 31.624 19.147 30.626 25.862-.996 6.767-6.553 10.476-8.407 11.586-1.853 1.113-2.422 1.53-2.279 2.364.237 1.205 1.091 1.16 2.658.88 2.186-.37 13.866-5.47 14.388-17.94.761-15.76-14.764-33.094-42.264-32.958zm-203.888 67.09c-8.737 9.315-20.99 12.837-26.257 9.87-5.652-3.198-3.42-16.921 7.362-26.837 6.554-6.025 15.01-11.586 20.607-15.017 1.282-.742 3.135-1.854 5.414-3.199.38-.23.57-.324.57-.324.427-.28.902-.51 1.377-.789 3.94 14.09.141 26.514-9.074 36.294zm63.823-42.37c-3.04 7.276-9.45 25.816-13.343 24.842-3.325-.835-5.367-14.973-.665-28.874 2.374-7 7.409-15.34 10.402-18.586 4.796-5.239 10.066-6.909 11.302-4.821 1.661 2.734-5.795 22.9-7.693 27.442zm52.714 24.565c-1.282.648-2.47 1.065-3.04.74-.426-.231.524-1.112.524-1.112s6.6-6.91 9.213-10.058a439.932 439.932 0 005.176-6.441c0 .23.046.463.046.74-.046 8.296-8.215 13.908-11.916 16.134zm40.652-9.038c-.95-.649-.809-2.828 2.374-9.6 1.235-2.641 4.085-7.089 9.02-11.353.571 1.761.903 3.43.903 5.005-.048 10.432-7.693 14.322-12.3 15.947z" fill="#fff"/></svg>
